<svg width="200" height="200" viewBox="50 50 200 200" fill="none" xmlns="http://www.w3.org/2000/svg">
<rect width="300" height="300" fill="#111111"/>
<g filter="url(#filter0_d_1_2)">
<path d="M82.084 110.789L150 71.5774L217.916 110.789V189.211L150 228.423L82.084 189.211V110.789Z" stroke="white" shape-rendering="crispEdges"/>
</g>
<path d="M217.55 111L150 228L82.45 111L217.55 111Z" stroke="white"/>
<path d="M82.45 189L150 72L217.55 189H82.45Z" stroke="white"/>
<circle cx="150.5" cy="150.5" r="31" stroke="white"/>
<path d="M134 129C148.002 139.943 155.103 138.722 167 129" stroke="white"/>
<path d="M167 172.756C152.998 161.813 145.897 163.034 134 172.756" stroke="white"/>
<line x1="140.5" y1="168.5" x2="140.5" y2="133.75" stroke="white"/>
<line x1="160.5" y1="168.75" x2="160.5" y2="134" stroke="white"/>
<defs>
<filter id="filter0_d_1_2" x="77.584" y="71" width="144.832" height="166" filterUnits="userSpaceOnUse" color-interpolation-filters="sRGB">
<feFlood flood-opacity="0" result="BackgroundImageFix"/>
<feColorMatrix in="SourceAlpha" type="matrix" values="0 0 0 0 0 0 0 0 0 0 0 0 0 0 0 0 0 0 127 0" result="hardAlpha"/>
<feOffset dy="4"/>
<feGaussianBlur stdDeviation="2"/>
<feComposite in2="hardAlpha" operator="out"/>
<feColorMatrix type="matrix" values="0 0 0 0 0 0 0 0 0 0 0 0 0 0 0 0 0 0 0.25 0"/>
<feBlend mode="normal" in2="BackgroundImageFix" result="effect1_dropShadow_1_2"/>
<feBlend mode="normal" in="SourceGraphic" in2="effect1_dropShadow_1_2" result="shape"/>
</filter>
</defs>
</svg>
